<?xml version="1.0" encoding="UTF-8" standalone="no"?>
<!-- Created with Inkscape (http://www.inkscape.org/) -->

<svg
   xmlns:dc="http://purl.org/dc/elements/1.1/"
   xmlns:cc="http://creativecommons.org/ns#"
   xmlns:rdf="http://www.w3.org/1999/02/22-rdf-syntax-ns#"
   xmlns:svg="http://www.w3.org/2000/svg"
   xmlns="http://www.w3.org/2000/svg"
   xmlns:xlink="http://www.w3.org/1999/xlink"
   xmlns:sodipodi="http://sodipodi.sourceforge.net/DTD/sodipodi-0.dtd"
   xmlns:inkscape="http://www.inkscape.org/namespaces/inkscape"
   version="1.0"
   width="50"
   height="50"
   viewBox="-9.302 -9.782 50 50"
   id="Layer_1"
   xml:space="preserve"
   inkscape:version="0.92.4 5da689c313, 2019-01-14"
   sodipodi:docname="midiconnector.svg"><title
     id="title4700">Midi Female Connector</title><metadata
     id="metadata13"><rdf:RDF><cc:Work
         rdf:about=""><dc:format>image/svg+xml</dc:format><dc:type
           rdf:resource="http://purl.org/dc/dcmitype/StillImage" /><dc:title>Midi Female Connector</dc:title><cc:license
           rdf:resource="http://artlibre.org/licence/lal" /><dc:date>2015-10-15</dc:date><dc:creator><cc:Agent><dc:title>neilbgr</dc:title></cc:Agent></dc:creator><dc:rights><cc:Agent><dc:title>ArtLibre</dc:title></cc:Agent></dc:rights></cc:Work><cc:License
         rdf:about="http://artlibre.org/licence/lal"><cc:permits
           rdf:resource="http://creativecommons.org/ns#Reproduction" /><cc:permits
           rdf:resource="http://creativecommons.org/ns#Distribution" /><cc:permits
           rdf:resource="http://creativecommons.org/ns#DerivativeWorks" /><cc:requires
           rdf:resource="http://creativecommons.org/ns#ShareAlike" /><cc:requires
           rdf:resource="http://creativecommons.org/ns#Notice" /><cc:requires
           rdf:resource="http://creativecommons.org/ns#Attribution" /></cc:License></rdf:RDF></metadata><sodipodi:namedview
     pagecolor="#ffffff"
     bordercolor="#666666"
     borderopacity="1"
     objecttolerance="10"
     gridtolerance="10"
     guidetolerance="10"
     inkscape:pageopacity="0"
     inkscape:pageshadow="2"
     inkscape:window-width="1667"
     inkscape:window-height="905"
     id="namedview11"
     showgrid="false"
     inkscape:zoom="1.0373626"
     inkscape:cx="261.57434"
     inkscape:cy="-133.64015"
     inkscape:window-x="1454"
     inkscape:window-y="288"
     inkscape:window-maximized="0"
     inkscape:current-layer="g4661"
     showguides="true"
     inkscape:guide-bbox="true"
     fit-margin-top="0"
     fit-margin-left="0"
     fit-margin-right="0"
     fit-margin-bottom="0"
     inkscape:document-units="mm" /><defs
     id="defs4693"><linearGradient
       id="linearGradient4198"><stop
         id="stop4200"
         offset="0"
         style="stop-color:#222527;stop-opacity:1" /><stop
         id="stop4202"
         offset="1"
         style="stop-color:#0b0b0b;stop-opacity:1;" /></linearGradient><linearGradient
       id="linearGradient4589"><stop
         id="stop4591"
         offset="0"
         style="stop-color:#000000;stop-opacity:1" /><stop
         style="stop-color:#d8d8d8;stop-opacity:1"
         offset="0.9353717"
         id="stop4635" /><stop
         style="stop-color:#595959;stop-opacity:1"
         offset="0.9693892"
         id="stop4597" /><stop
         id="stop4593"
         offset="1"
         style="stop-color:#e0e0e0;stop-opacity:1" /></linearGradient><linearGradient
       id="linearGradient5082"><stop
         style="stop-color:#bbbfc2;stop-opacity:1"
         offset="0"
         id="stop4583" /><stop
         style="stop-color:#575d60;stop-opacity:1"
         offset="1"
         id="stop4585" /></linearGradient><linearGradient
       id="linearGradient5016"><stop
         style="stop-color:#1e1e1e;stop-opacity:1;"
         offset="0"
         id="stop5018" /><stop
         style="stop-color:#0b0b0b;stop-opacity:1;"
         offset="1"
         id="stop5020" /></linearGradient><linearGradient
       id="linearGradient4969"><stop
         style="stop-color:#5f6466;stop-opacity:1"
         offset="0"
         id="stop4971" /><stop
         style="stop-color:#181c1e;stop-opacity:1"
         offset="1"
         id="stop4973" /></linearGradient><radialGradient
       inkscape:collect="always"
       xlink:href="#linearGradient4198"
       id="radialGradient5030"
       cx="333.06421"
       cy="229.40721"
       fx="333.06421"
       fy="229.40721"
       r="43.625"
       gradientTransform="matrix(0.11310779,0,0,0.06522219,11.411931,385.62673)"
       gradientUnits="userSpaceOnUse" /><radialGradient
       inkscape:collect="always"
       xlink:href="#linearGradient5016"
       id="radialGradient5038"
       cx="311.38385"
       cy="156.43065"
       fx="311.38385"
       fy="156.43065"
       r="36.393906"
       gradientTransform="matrix(0.10369242,0.09931265,-0.05990744,0.06254722,21.288032,368.20783)"
       gradientUnits="userSpaceOnUse" /><radialGradient
       inkscape:collect="always"
       xlink:href="#linearGradient5016"
       id="radialGradient5046"
       cx="222.26376"
       cy="247.28186"
       fx="222.26376"
       fy="247.28186"
       r="25.156244"
       gradientTransform="matrix(0.11310057,-0.00127781,0.00216714,0.19180959,10.912015,367.01664)"
       gradientUnits="userSpaceOnUse" /><radialGradient
       inkscape:collect="always"
       xlink:href="#linearGradient5016"
       id="radialGradient5054"
       cx="134.27345"
       cy="140.66267"
       fx="134.27345"
       fy="140.66267"
       r="36.393906"
       gradientTransform="matrix(0.10316756,-0.11064462,0.06864052,0.06399975,3.9739018,415.64299)"
       gradientUnits="userSpaceOnUse" /><radialGradient
       inkscape:collect="always"
       xlink:href="#linearGradient5016"
       id="radialGradient5062"
       cx="113.57554"
       cy="224.69989"
       fx="113.57554"
       fy="224.69989"
       r="43.625004"
       gradientTransform="matrix(0.11310779,0,0,0.06272288,11.41193,386.17292)"
       gradientUnits="userSpaceOnUse" /><linearGradient
       inkscape:collect="always"
       xlink:href="#linearGradient5082"
       id="linearGradient5080"
       x1="313.06241"
       y1="354.89835"
       x2="178.05849"
       y2="89.157043"
       gradientUnits="userSpaceOnUse"
       gradientTransform="matrix(0.11310779,0,0,0.11310581,11.411931,375.20221)" /><linearGradient
       inkscape:collect="always"
       xlink:href="#linearGradient4969"
       id="linearGradient5089"
       x1="397.58563"
       y1="394.43341"
       x2="224.21414"
       y2="31.801474"
       gradientUnits="userSpaceOnUse"
       gradientTransform="matrix(0.11310779,0,0,0.11310581,11.411931,375.20221)" /></defs><g
     inkscape:groupmode="layer"
     id="layer4"
     inkscape:label="Calque#3"
     transform="translate(4.4451779e-7,-405)" /><g
     inkscape:groupmode="layer"
     id="layer1"
     inkscape:label="Calque"
     style="display:inline"
     transform="translate(4.4451779e-7,-405)" /><g
     inkscape:groupmode="layer"
     id="layer2"
     inkscape:label="Calque#1"
     style="display:inline"
     transform="translate(4.4451779e-7,-405)"><g
       id="g4661"
       transform="translate(-20.351698,20.348549)"><path
         id="path4678-2"
         style="display:inline;fill:none;fill-opacity:1;stroke:#000000;stroke-width:0.97436637;stroke-opacity:1"
         d="m 60.562514,399.86945 c 0,-13.53816 -10.975349,-24.51281 -24.512755,-24.51281 -13.537777,0 -24.512878,10.97465 -24.512878,24.51281 0,13.5373 10.974853,24.51282 24.512878,24.51282 13.537406,0 24.512755,-10.97551 24.512755,-24.51282 z"
         inkscape:connector-curvature="0" /><path
         id="path4678"
         style="display:inline;fill:#030000;fill-opacity:1;stroke:none;stroke-width:0.99302071"
         d="m 59.314583,399.82737 c 0,-12.8257 -10.397764,-23.22282 -23.222754,-23.22282 -12.825343,0 -23.222874,10.39712 -23.222874,23.22282 0,12.82489 10.397296,23.22282 23.222874,23.22282 12.82499,0 23.222754,-10.39793 23.222754,-23.22282 z"
         inkscape:connector-curvature="0" /><path
         sodipodi:nodetypes="sscccccs"
         inkscape:connector-curvature="0"
         id="path4690"
         style="display:inline;fill:url(#linearGradient5089);fill-opacity:1;stroke:none;stroke-width:0.99302071"
         d="m 36.091487,420.39894 c 11.361451,0 20.572383,-9.21089 20.572383,-20.57157 0,-9.93137 -7.03915,-18.21897 -16.400176,-20.14697 l -0.0014,3.64223 h -8.38199 l 0.04003,-3.64291 C 22.558971,381.6084 15.51982,389.896 15.51982,399.82737 c 2.26e-4,11.36068 9.210368,20.57157 20.571707,20.57157 z" /><path
         d="m 36.091487,420.39894 c 11.361451,0 20.572383,-9.21089 20.572383,-20.57157 0,-9.93137 -7.03915,-18.21897 -16.400176,-20.14697 l -0.0014,3.64223 h -8.38199 l 0.04003,-3.64291 C 22.558971,381.6084 15.51982,389.896 15.51982,399.82737 c 2.26e-4,11.36068 9.210368,20.57157 20.571707,20.57157 z"
         style="display:inline;opacity:0.27906979;fill:url(#linearGradient5080);fill-opacity:1;stroke:none;stroke-width:0.99302071"
         id="path5078"
         inkscape:connector-curvature="0"
         sodipodi:nodetypes="sscccccs" /><path
         id="path4682-1"
         d="m 48.122752,402.67413 c 1.260939,-9e-5 2.330971,-0.82223 2.703982,-1.95815 h 2.230345 v -1.77434 h -2.230345 c -0.373011,-1.1363 -1.443043,-1.95816 -2.703982,-1.95816 -1.261393,0 -2.331098,0.82195 -2.703983,1.95816 h -2.230346 v 1.77434 h 2.230346 c 0.372885,1.13593 1.44259,1.95815 2.703983,1.95815 z"
         style="fill:url(#radialGradient5030);fill-opacity:1;stroke:none;stroke-width:0.99302071"
         inkscape:connector-curvature="0" /><path
         inkscape:connector-curvature="0"
         style="fill:url(#radialGradient5038);fill-opacity:1;stroke:none;stroke-width:0.99302071"
         d="m 42.594427,410.35888 c 0.891681,0.89155 2.229661,1.06681 3.296644,0.52736 l 1.577093,1.57706 1.254676,-1.25465 -1.577092,-1.57707 c 0.539733,-1.06723 0.364255,-2.40498 -0.527364,-3.29659 -0.891941,-0.89192 -2.229546,-1.0671 -3.296646,-0.52736 l -1.577091,-1.57706 -1.254675,1.25465 1.577091,1.57707 c -0.539572,1.0669 -0.364575,2.40466 0.527364,3.29659 z"
         id="path4961" /><path
         id="path4963"
         d="m 33.242755,411.87686 c 9e-5,1.26092 0.822246,2.33092 1.958177,2.70393 v 2.2303 h 1.774378 v -2.2303 c 1.136312,-0.37301 1.958178,-1.44301 1.958178,-2.70393 0,-1.26138 -0.821956,-2.33107 -1.958178,-2.70395 v -2.2303 h -1.774378 v 2.2303 c -1.135955,0.37288 -1.958177,1.44257 -1.958177,2.70395 z"
         style="fill:url(#radialGradient5046);fill-opacity:1;stroke:none;stroke-width:0.99302071"
         inkscape:connector-curvature="0" /><path
         inkscape:connector-curvature="0"
         style="fill:url(#radialGradient5054);fill-opacity:1;stroke:none;stroke-width:0.99302071"
         d="m 29.595452,410.35888 c 0.891554,-0.89167 1.066829,-2.22962 0.527363,-3.29659 l 1.577092,-1.57707 -1.254675,-1.25465 -1.577092,1.57706 c -1.067252,-0.53971 -2.405027,-0.36424 -3.296644,0.52736 -0.891941,0.89192 -1.067125,2.22952 -0.527365,3.29659 l -1.577091,1.57707 1.254674,1.25465 1.577092,-1.57706 c 1.066913,0.53956 2.404706,0.36457 3.296646,-0.52736 z"
         id="path4965" /><path
         id="path4967"
         d="m 24.046882,402.66945 c 1.26094,-8e-5 2.330972,-0.82223 2.703984,-1.95815 h 2.230344 v -1.77435 h -2.230344 c -0.373011,-1.13628 -1.443044,-1.95813 -2.703984,-1.95813 -1.261392,0 -2.331096,0.82194 -2.703983,1.95813 h -2.230344 v 1.77435 h 2.230344 c 0.372887,1.13594 1.442591,1.95815 2.703983,1.95815 z"
         style="fill:url(#radialGradient5062);fill-opacity:1;stroke:none;stroke-width:0.99302071"
         inkscape:connector-curvature="0" /></g></g><g
     inkscape:groupmode="layer"
     id="layer3"
     inkscape:label="Calque#2"
     style="display:none"
     transform="translate(4.4451779e-7,-405)"><path
       inkscape:connector-curvature="0"
       d="m 299.47999,217.715 c 0,13.893 11.262,25.148 25.15,25.148 13.89501,0 25.14901,-11.258 25.14901,-25.148 0,-13.883 -11.257,-25.146 -25.14901,-25.146 -13.89,0.001 -25.15,11.263 -25.15,25.146 z"
       style="display:inline;fill:none;stroke:#000000;stroke-width:5"
       id="path4680" /><path
       inkscape:connector-curvature="0"
       d="m 86.612998,217.715 c 0,13.893 11.262,25.148 25.151002,25.148 13.894,0 25.15099,-11.258 25.15099,-25.148 0,-13.883 -11.25699,-25.146 -25.15099,-25.146 -13.889002,0.001 -25.151002,11.263 -25.151002,25.146 z"
       style="display:inline;fill:none;stroke:#000000;stroke-width:5"
       id="path4682" /><path
       inkscape:connector-curvature="0"
       d="m 125.158,124.685 c -9.82,9.82 -9.82,25.746 0.005,35.566 9.82099,9.826 25.73999,9.826 35.56599,0 9.814,-9.815 9.82,-25.741 -0.005,-35.561 -9.821,-9.825 -25.746,-9.825 -35.56599,-0.005 z"
       style="display:inline;fill:none;stroke:#000000;stroke-width:5"
       id="path4684" /><path
       inkscape:connector-curvature="0"
       d="m 218.19699,86.157002 c -13.888,0 -25.15,11.262 -25.145,25.149998 -0.005,13.894 11.251,25.151 25.148,25.151 13.877,0 25.143,-11.257 25.143,-25.151 0,-13.887998 -11.257,-25.149998 -25.146,-25.149998 z"
       style="display:inline;fill:none;stroke:#000000;stroke-width:5"
       id="path4686" /><path
       inkscape:connector-curvature="0"
       d="m 311.22699,124.702 c -9.814,-9.821 -25.745,-9.821 -35.562,0.005 -9.831,9.82 -9.831,25.739 -0.005,35.565 9.815,9.815 25.74,9.821 35.562,-0.005 9.825,-9.821 9.825,-25.746 0.005,-35.565 z"
       style="display:inline;fill:none;stroke:#000000;stroke-width:5"
       id="path4688" /></g></svg>